<?xml version="1.0" encoding="UTF-8" standalone="no"?>
<!-- Created with Inkscape (http://www.inkscape.org/) -->

<svg
   xmlns:dc="http://purl.org/dc/elements/1.1/"
   xmlns:cc="http://creativecommons.org/ns#"
   xmlns:rdf="http://www.w3.org/1999/02/22-rdf-syntax-ns#"
   xmlns:svg="http://www.w3.org/2000/svg"
   xmlns="http://www.w3.org/2000/svg"
   xmlns:sodipodi="http://sodipodi.sourceforge.net/DTD/sodipodi-0.dtd"
   xmlns:inkscape="http://www.inkscape.org/namespaces/inkscape"
   width="41.875"
   height="41.875"
   id="svg3355"
   version="1.1"
   inkscape:version="0.48.4 r9939"
   sodipodi:docname="treeview_plus.svg">
  <defs
     id="defs3357" />
  <sodipodi:namedview
     id="base"
     pagecolor="#ffffff"
     bordercolor="#666666"
     borderopacity="1.0"
     inkscape:pageopacity="0.0"
     inkscape:pageshadow="2"
     inkscape:zoom="3.959798"
     inkscape:cx="7.1582033"
     inkscape:cy="10.528434"
     inkscape:document-units="px"
     inkscape:current-layer="layer1"
     showgrid="false"
     fit-margin-top="0"
     fit-margin-left="0"
     fit-margin-right="0"
     fit-margin-bottom="0"
     inkscape:window-width="485"
     inkscape:window-height="399"
     inkscape:window-x="1"
     inkscape:window-y="56"
     inkscape:window-maximized="0" />
  <metadata
     id="metadata3360">
    <rdf:RDF>
      <cc:Work
         rdf:about="">
        <dc:format>image/svg+xml</dc:format>
        <dc:type
           rdf:resource="http://purl.org/dc/dcmitype/StillImage" />
        <dc:title></dc:title>
      </cc:Work>
    </rdf:RDF>
  </metadata>
  <g
     inkscape:label="Layer 1"
     inkscape:groupmode="layer"
     id="layer1"
     transform="translate(-435.13393,-749.63897)">
    <path
       inkscape:connector-curvature="0"
       d="m 443.49639,785.52122 12.59784,-12.87905 12.87905,12.59785 c 0.57642,0.56384 1.50172,0.55376 2.0657,-0.0228 0.56396,-0.57656 0.55362,-1.50186 -0.0228,-2.06571 l -12.87905,-12.59784 12.59785,-12.87905 c 0.56397,-0.57656 0.55362,-1.50186 -0.0228,-2.0657 -0.57643,-0.56384 -1.50173,-0.55376 -2.06571,0.0228 l -12.59784,12.87905 -12.87905,-12.59785 c -0.57642,-0.56384 -1.50173,-0.55375 -2.0657,0.0228 -0.56398,0.57657 -0.55362,1.50186 0.0228,2.06571 l 12.87905,12.59784 -12.59785,12.87905 c -0.56398,0.57657 -0.55362,1.50186 0.0228,2.0657 0.57643,0.56384 1.50172,0.55377 2.06571,-0.0228"
       style="fill:#ff8855;fill-opacity:1;fill-rule:evenodd;stroke:none"
       id="path20" />
  </g>
</svg>
